<?xml version="1.0" encoding="UTF-8"?>
<svg width="31px" height="46px" viewBox="0 0 31 46" version="1.1" xmlns="http://www.w3.org/2000/svg" xmlns:xlink="http://www.w3.org/1999/xlink">
    <!-- Generator: Sketch 57.1 (83088) - https://sketch.com -->
    <title>book</title>
    <desc>Created with Sketch.</desc>
    <g id="Webseite" stroke="none" stroke-width="1" fill="none" fill-rule="evenodd">
        <g id="Webseite_04" transform="translate(-130.000000, -1162.000000)" fill="#242E57" fill-rule="nonzero">
            <g id="book" transform="translate(130.000000, 1162.000000)">
                <rect id="Rectangle" x="11.5151648" y="17.1817582" width="12.1318681" height="2.02197802"></rect>
                <rect id="Rectangle" x="14.5481319" y="21.2206593" width="6.06593407" height="2.02197802"></rect>
                <path d="M6.26813187,8.75516484 L19.0723077,8.75516484 C19.4910731,8.75516484 19.8305495,8.41568844 19.8305495,7.99692308 C19.8305495,7.57815772 19.4910731,7.23868132 19.0723077,7.23868132 L6.26813187,7.23868132 C5.84936651,7.23868132 5.50989011,7.57815772 5.50989011,7.99692308 C5.50989011,8.41568844 5.84936651,8.75516484 6.26813187,8.75516484 L6.26813187,8.75516484 Z" id="Path"></path>
                <path d="M6.26813187,5.36835165 L9.72065934,5.36835165 C10.1394247,5.36835165 10.4789011,5.02887525 10.4789011,4.61010989 C10.4789011,4.19134453 10.1394247,3.85186813 9.72065934,3.85186813 L6.26813187,3.85186813 C5.84936651,3.85186813 5.50989011,4.19134453 5.50989011,4.61010989 C5.50989011,5.02887525 5.84936651,5.36835165 6.26813187,5.36835165 L6.26813187,5.36835165 Z" id="Path"></path>
                <path d="M6.27824176,29.44 L6.27824176,29.44 C5.86014576,29.4427874 5.52320725,29.7834881 5.52505479,30.2015893 C5.52691757,30.6196904 5.86686619,30.9573878 6.28497046,30.9564667 C6.70307473,30.9555419 7.04153846,30.616347 7.04153846,30.1982418 C7.04155649,29.9953796 6.96028423,29.8009697 6.8158922,29.6584776 C6.67150017,29.5159855 6.47603097,29.4372952 6.27318681,29.44 L6.27824176,29.44 Z" id="Path"></path>
                <path d="M17.2778022,5.36835165 C17.6965676,5.36835165 18.036044,5.02887525 18.036044,4.61010989 C18.036044,4.19134453 17.6965676,3.85186813 17.2778022,3.85186813 L17.2778022,3.85186813 C16.8590368,3.85186813 16.5195604,4.19134453 16.5195604,4.61010989 C16.5195604,5.02887525 16.8590368,5.36835165 17.2778022,5.36835165 Z" id="Path"></path>
                <path d="M30.4408791,11.227033 C30.4082888,11.1219803 30.3587736,11.02295 30.2942857,10.9338462 C28.3228571,8.1232967 28.1156044,5.37340659 29.6624176,2.60835165 C29.965138,2.0726807 29.9612906,1.41669863 29.6523077,0.884615385 C29.3380393,0.344434006 28.760771,0.0115426131 28.1358242,0.0101098901 L6.29846154,0.0101098901 C2.83897618,0.015676249 0.0358960293,2.8187564 0.0303296703,6.27824176 L0.0303296703,32.7105495 C0.0358960293,36.1700348 2.83897618,38.973115 6.29846154,38.9786813 L6.80395604,38.9786813 L6.80395604,44.0841758 C6.79663169,44.6866209 7.15742123,45.2326271 7.71448396,45.462137 C8.2715467,45.6916468 8.91224829,45.5582549 9.33142857,45.1254945 L11.6112088,42.8457143 L13.9971429,45.2265934 C14.4163231,45.6593538 15.0570247,45.7927457 15.6140875,45.5632359 C16.1711502,45.333726 16.5319397,44.7877198 16.5246154,44.1852747 L16.5246154,38.9786813 L28.7778022,38.9786813 C29.7549214,38.9786813 30.547033,38.1865697 30.547033,37.2094505 L30.547033,11.5404396 C30.5291008,11.4308497 30.4932359,11.3249629 30.4408791,11.227033 L30.4408791,11.227033 Z M6.26813187,2.01692308 L27.6859341,2.01692308 C27.3873892,2.60428763 27.1453484,3.21869891 26.9630769,3.85186813 L19.967033,3.85186813 C19.5482676,3.85186813 19.2087912,4.19134453 19.2087912,4.61010989 C19.2087912,5.02887525 19.5482676,5.36835165 19.967033,5.36835165 L26.6648352,5.36835165 C26.5960159,5.98820558 26.5960159,6.61377244 26.6648352,7.23362637 L22.0698901,7.23362637 C21.6511248,7.23362637 21.3116484,7.57310277 21.3116484,7.99186813 C21.3116484,8.41063349 21.6511248,8.75010989 22.0698901,8.75010989 L26.9883516,8.75010989 C27.1682372,9.35837824 27.4034312,9.94890117 27.690989,10.5142857 L6.26813187,10.5142857 C3.92164997,10.5142857 2.01945055,8.61208629 2.01945055,6.2656044 C2.01945055,3.9191225 3.92164997,2.01692308 6.26813187,2.01692308 L6.26813187,2.01692308 Z M14.441978,42.8406593 L12.6727473,41.0714286 C12.0616047,40.4641878 11.0748788,40.4641878 10.4637363,41.0714286 L8.80065934,42.7345055 L8.80065934,38.9584615 L14.441978,38.9584615 L14.441978,42.8406593 Z M28.4643956,36.9415385 L7.02637363,36.9415385 L7.02637363,33.0643956 C7.02637363,32.6456302 6.68689723,32.3061538 6.26813187,32.3061538 C5.84936651,32.3061538 5.50989011,32.6456302 5.50989011,33.0643956 L5.50989011,36.8707692 C3.4922875,36.5025308 2.02522941,34.7463135 2.02197802,32.6953846 L2.02197802,10.8782418 C2.98635249,11.7688079 4.20672551,12.3330093 5.50989011,12.4907692 L5.50989011,27.1703297 C5.50989011,27.589095 5.84936651,27.9285714 6.26813187,27.9285714 C6.68689723,27.9285714 7.02637363,27.589095 7.02637363,27.1703297 L7.02637363,12.510989 L28.4643956,12.510989 L28.4643956,36.9415385 Z" id="Shape"></path>
            </g>
        </g>
    </g>
</svg>