<?xml version="1.0" encoding="UTF-8"?>
<svg width="35px" height="46px" viewBox="0 0 35 46" version="1.1" xmlns="http://www.w3.org/2000/svg" xmlns:xlink="http://www.w3.org/1999/xlink">
    <!-- Generator: Sketch 57.1 (83088) - https://sketch.com -->
    <title>contract</title>
    <desc>Created with Sketch.</desc>
    <g id="Webseite" stroke="none" stroke-width="1" fill="none" fill-rule="evenodd">
        <g id="Webseite_04" transform="translate(-130.000000, -1373.000000)" fill="#242E57" fill-rule="nonzero">
            <g id="contract" transform="translate(130.000000, 1373.000000)">
                <path d="M33.6115068,25.8923288 C32.9154768,25.8923288 32.3512329,26.4565726 32.3512329,27.1526027 L32.3512329,43.0572603 L2.52054795,43.0572603 L2.52054795,14.549863 C2.52054795,13.8538329 1.95630407,13.289589 1.26027397,13.289589 C0.564243877,13.289589 0,13.8538329 0,14.549863 L0,43.6873973 C0,44.7314424 0.846365815,45.5778082 1.89041096,45.5778082 L32.9750685,45.5778082 C34.0191136,45.5778082 34.8654795,44.7314424 34.8654795,43.6873973 L34.8654795,27.1526027 C34.8654795,26.4590261 34.3050748,25.8957967 33.6115068,25.8923288 Z" id="Path"></path>
                <path d="M32.9813699,-3.55271368e-15 L1.89041096,-3.55271368e-15 C0.846365815,-3.55271368e-15 0,0.846365815 0,1.89041096 L0,7.19616438 C0,7.89219448 0.564243877,8.45643836 1.26027397,8.45643836 C1.95630407,8.45643836 2.52054795,7.89219448 2.52054795,7.19616438 L2.52054795,2.52054795 L32.3449315,2.52054795 L32.3449315,23.2142466 C32.3449315,23.9102767 32.9091754,24.4745205 33.6052055,24.4745205 C34.3012356,24.4745205 34.8654795,23.9102767 34.8654795,23.2142466 L34.8654795,1.89041096 C34.8654795,0.848821711 34.0229533,0.00347196414 32.9813699,-3.55271368e-15 L32.9813699,-3.55271368e-15 Z" id="Path"></path>
                <rect id="Rectangle" x="10.920274" y="6.2509589" width="13.0249315" height="1.89041096"></rect>
                <rect id="Rectangle" x="6.61643836" y="12.6027397" width="21.6326027" height="1.89041096"></rect>
                <rect id="Rectangle" x="6.61643836" y="18.9545205" width="21.6326027" height="1.89041096"></rect>
                <path d="M11.2479452,37.0268493 C12.0809036,37.6764198 13.2072779,37.8053568 14.1654795,37.3608219 C16.0641424,36.5014514 17.8485281,35.4092295 19.4775342,34.1093151 C19.5716361,34.5140954 19.7923765,34.8783171 20.1076712,35.1490411 C21.7964384,36.6550685 25.4953425,34.789863 27.549589,33.5358904 C27.8518034,33.3670175 28.0375156,33.0464378 28.0337275,32.7002632 C28.029822,32.3540887 27.8370318,32.037715 27.5311394,31.8755996 C27.225247,31.7134841 26.855202,31.7315689 26.5665753,31.9227397 C23.2835616,33.920274 21.6010959,33.9517808 21.3616438,33.7375342 C21.3616438,33.7375342 21.1032877,33.3279452 21.8216438,31.7589041 C22.0143718,31.3313586 21.8644638,30.8271521 21.4694581,30.5743485 C21.0744523,30.3215448 20.5538153,30.3966025 20.2463014,30.7506849 C18.3345616,32.8522234 15.9946154,34.5196231 13.3841096,35.6405479 C13.0675719,35.790705 12.6930463,35.7466431 12.42,35.5271233 C12.1201932,35.2989121 11.9760441,34.9202152 12.0482192,34.550411 C12.1322374,34.0799087 12.226758,33.6283105 12.3317808,33.1956164 C15.2241096,32.1558904 17.8517808,30.5931507 19.0553425,27.8646575 C19.5379648,26.8039293 19.2305063,25.550645 18.3117808,24.8336986 C17.399836,24.0938444 16.1018938,24.0678855 15.1610959,24.7706849 C13.1383562,26.2578082 11.6890411,28.5515068 10.750137,31.7021918 C10.0863927,31.9122374 9.36803653,32.1222831 8.59506849,32.3323288 C8.26750978,32.4156255 8.00927132,32.6673453 7.91762904,32.9926678 C7.82598675,33.3179904 7.91486329,33.6674913 8.15077972,33.9095172 C8.38669615,34.151543 8.73381115,34.2493241 9.06136986,34.1660274 L10.2460274,33.8509589 L10.1767123,34.210137 C9.97632756,35.2757252 10.3901055,36.3637179 11.2479452,37.0268493 Z M16.2575342,26.3145205 C16.3745613,26.2227555 16.5184255,26.1718497 16.6671233,26.169589 C16.8281943,26.1740901 16.9832644,26.2316876 17.1082192,26.3334247 C17.3595084,26.5141786 17.4422995,26.8506843 17.3035616,27.1273973 C16.6230137,28.6838356 15.2745205,29.8873973 13.0186301,30.9082192 C13.6222207,29.0861551 14.7486422,27.4819906 16.2575342,26.2956164 L16.2575342,26.3145205 Z" id="Shape"></path>
                <path d="M18.4315068,40.7509589 C18.5686691,40.750705 18.7041328,40.7206019 18.8284932,40.6627397 C21.9509765,39.1378917 25.2134264,37.9181659 28.570411,37.0205479 C28.92681,36.9739112 29.2259144,36.7291665 29.3421707,36.3890493 C29.458427,36.048932 29.3717134,35.67231 29.1184291,35.4172759 C28.8651449,35.1622419 28.4891288,35.0729374 28.1482192,35.1868493 C24.6731476,36.1181691 21.2966066,37.3843719 18.0660274,38.9676712 C17.6643558,39.1545563 17.446378,39.5953471 17.5416813,40.027994 C17.6369846,40.4606409 18.0199952,40.769046 18.4630137,40.769863 L18.4315068,40.7509589 Z" id="Path"></path>
                <path d="M1.27287671,12.1112329 C1.96890681,12.1112329 2.53315068,11.546989 2.53315068,10.8509589 C2.53315068,10.1549288 1.96890681,9.59068493 1.27287671,9.59068493 L1.27287671,9.59068493 C0.576846617,9.59068493 0.0126027397,10.1549288 0.0126027397,10.8509589 C0.0126027397,11.546989 0.576846617,12.1112329 1.27287671,12.1112329 Z" id="Path"></path>
            </g>
        </g>
    </g>
</svg>