<?xml version="1.0" encoding="UTF-8"?>
<svg width="34px" height="46px" viewBox="0 0 34 46" version="1.1" xmlns="http://www.w3.org/2000/svg" xmlns:xlink="http://www.w3.org/1999/xlink">
    <!-- Generator: Sketch 57.1 (83088) - https://sketch.com -->
    <title>leaf-lightbulb</title>
    <desc>Created with Sketch.</desc>
    <g id="Webseite" stroke="none" stroke-width="1" fill="none" fill-rule="evenodd">
        <g id="Webseite_03" transform="translate(-559.000000, -1599.000000)" fill="#242E57" fill-rule="nonzero">
            <g id="Operating-Figures" transform="translate(0.000000, 1519.000000)">
                <g id="Karte/Feature" transform="translate(529.000000, 50.000000)">
                    <g id="leaf-lightbulb" transform="translate(30.000000, 30.000000)">
                        <path d="M33.9905396,17.2524731 C33.9944284,9.12330166 28.1634359,2.16374437 20.1591812,0.744114099 C12.1549264,-0.675516174 4.28619113,3.85426482 1.4942141,11.4889428 C-1.29776293,19.1236208 1.79234818,27.6610165 8.82408602,31.74 L8.82408602,37.1808602 C8.82768162,39.4735285 10.5940606,41.3777712 12.88,41.5533333 C13.0344937,43.8435448 14.9372716,45.6222891 17.2326882,45.6222891 C19.5281047,45.6222891 21.4308826,43.8435448 21.5853763,41.5533333 C23.8713157,41.3777712 25.6376947,39.4735285 25.6412903,37.1808602 L25.6412903,31.74 C30.8107035,28.7471958 33.9927614,23.2257222 33.9905396,17.2524731 L33.9905396,17.2524731 Z M17.2326882,43.6554839 C16.0392156,43.654645 15.0286527,42.7748856 14.8634409,41.5929032 L19.6464516,41.5929032 C19.4777356,42.7822773 18.453695,43.6624444 17.2524731,43.6505376 L17.2326882,43.6554839 Z M21.2539785,39.6144086 L13.2163441,39.6144086 C11.8871198,39.6116876 10.8102479,38.5348157 10.8075269,37.2055914 L10.8075269,36.631828 L12.4793548,36.631828 C12.8891145,36.631828 13.2212903,36.2996521 13.2212903,35.8898925 C13.2212903,35.4801328 12.8891145,35.147957 12.4793548,35.147957 L10.8075269,35.147957 L10.8075269,32.1802151 L23.6677419,32.1802151 L23.6677419,35.147957 L17.0991398,35.147957 C16.6893801,35.147957 16.3572043,35.4801328 16.3572043,35.8898925 C16.3572043,36.2996521 16.6893801,36.631828 17.0991398,36.631828 L23.6825806,36.631828 L23.6825806,37.2055914 C23.6798596,38.5348157 22.6029877,39.6116876 21.2737634,39.6144086 L21.2539785,39.6144086 Z M21.62,12.128172 C21.330331,11.8388633 20.8610668,11.8388633 20.5713978,12.128172 L18.3307527,14.3688172 C18.4347007,13.2097695 18.9160126,12.1168265 19.7008602,11.2576344 C20.6258065,10.3326882 22.0552688,9.84301075 23.9595699,9.77376344 C23.9101075,11.6780645 23.4154839,13.1075269 22.4756989,14.0324731 C21.6167091,14.8176311 20.5236563,15.2989914 19.3645161,15.4025806 L21.6051613,13.1619355 C21.8935112,12.8788557 21.9023069,12.417081 21.6249462,12.1232258 L21.62,12.128172 Z M12.0737634,21.8772043 L15.1453763,24.9092473 C13.3350538,24.7262366 11.9402151,24.1623656 10.9855914,23.2077419 C9.84301075,22.0651613 9.24946237,20.2894624 9.21483871,17.9301075 C11.5791398,17.9647312 13.3498925,18.5582796 14.4924731,19.7008602 C15.4470968,20.6554839 16.0109677,22.0552688 16.1939785,23.8606452 L13.1421505,20.8088172 C12.8498183,20.5364192 12.39427,20.5444568 12.111729,20.8269978 C11.829188,21.1095388 11.8211504,21.5650871 12.0935484,21.8574194 L12.0737634,21.8772043 Z M24.3898925,30.1868817 L18.2615054,30.1868817 L18.2615054,17.4898925 C20.7098925,17.4305376 22.6092473,16.7529032 23.9101075,15.452043 C25.3939785,13.968172 26.0765591,11.7275269 25.947957,8.77462366 C25.9253863,8.26250332 25.5153461,7.85246312 25.0032258,7.82989247 C22.0354839,7.70129032 19.7997849,8.3888172 18.3258065,9.86774194 C16.851828,11.3466667 16.184086,13.5329032 16.2830108,16.5006452 L16.2830108,16.5006452 L16.2830108,18.7709677 C16.1544086,18.6176344 16.0307527,18.4643011 15.8922581,18.3258065 C14.1956989,16.6292473 11.603871,15.8526882 8.19591398,15.9911828 C7.68379364,16.0137534 7.27375345,16.4237936 7.2511828,16.935914 C7.1027957,20.343871 7.88924731,22.9356989 9.58580645,24.6322581 C11.1141935,26.1606452 13.3647312,26.9421505 16.2830108,26.9767742 L16.2830108,30.191828 L10.1002151,30.191828 C4.2031461,26.9292526 1.26007383,20.090491 2.94485556,13.5650538 C4.62963729,7.03961657 10.5155234,2.48037541 17.2549462,2.48037541 C23.9943691,2.48037541 29.8802552,7.03961657 31.5650369,13.5650538 C33.2498186,20.090491 30.3067464,26.9292526 24.4096774,30.191828 L24.3898925,30.1868817 Z" id="Shape"></path>
                        <path d="M13.8346237,5.17376344 C9.77164454,6.32833141 6.56390309,9.45239265 5.30236559,13.4834409 C5.21224979,13.7391095 5.26874689,14.0235737 5.44972537,14.2254006 C5.63070385,14.4272275 5.90734976,14.5142839 6.17129298,14.4524673 C6.43523619,14.3906507 6.64445379,14.1898031 6.71698925,13.9286022 C7.83164388,10.3770508 10.6595378,7.62538536 14.2402151,6.60817204 C14.6349502,6.49617107 14.8641515,6.08538029 14.7521505,5.69064516 C14.6401496,5.29591003 14.2293588,5.06670871 13.8346237,5.17870968 L13.8346237,5.17376344 Z" id="Path"></path>
                        <path d="M29.0443011,16.5006452 C28.6345414,16.5006452 28.3023656,16.832821 28.3023656,17.2425806 C28.304684,21.3346001 26.0483979,25.0938087 22.436129,27.0163441 C22.0741747,27.2089311 21.9368753,27.6584757 22.1294624,28.0204301 C22.3220494,28.3823845 22.771594,28.5196838 23.1335484,28.3270968 C27.2282411,26.1453349 29.7849476,21.8822552 29.7812942,17.2425806 C29.7812942,16.8347449 29.4521278,16.5033641 29.0443011,16.5006452 Z" id="Path"></path>
                        <path d="M14.8387097,35.1430108 L14.8387097,35.1430108 C14.429605,35.1457382 14.0999125,35.479112 14.1017203,35.8882218 C14.103543,36.2973315 14.4361809,36.6277665 14.8452937,36.6268653 C15.2544065,36.6259603 15.5855914,36.29406 15.5855914,35.8849462 C15.585609,35.6864467 15.5060846,35.4962177 15.3647977,35.3567899 C15.2235109,35.2173621 15.0322454,35.1403641 14.8337634,35.1430108 L14.8387097,35.1430108 Z" id="Path"></path>
                        <circle id="Oval" cx="16.663871" cy="5.45569892" r="1"></circle>
                    </g>
                </g>
            </g>
        </g>
    </g>
</svg>