<?xml version="1.0" encoding="UTF-8"?>
<svg width="46px" height="46px" viewBox="0 0 46 46" version="1.1" xmlns="http://www.w3.org/2000/svg" xmlns:xlink="http://www.w3.org/1999/xlink">
    <!-- Generator: Sketch 57.1 (83088) - https://sketch.com -->
    <title>magnifier</title>
    <desc>Created with Sketch.</desc>
    <g id="Webseite" stroke="none" stroke-width="1" fill="none" fill-rule="evenodd">
        <g id="Webseite_05" transform="translate(-960.000000, -1826.000000)" fill="#242E57" fill-rule="nonzero">
            <g id="Operating-Figures" transform="translate(0.000000, 1519.000000)">
                <g id="Karte/Feature" transform="translate(930.000000, 277.000000)">
                    <g id="magnifier">
                        <g transform="translate(30.000000, 30.000000)">
                            <path d="M36.7488889,3.0475 C29.4316169,-1.14030275 20.2016541,0.201281785 14.379383,6.29893057 C8.55711189,12.3965794 7.64319808,21.6786494 12.1644444,28.7947222 L2.74722222,36.1419444 C0.897081605,37.5889186 0.168253301,40.050058 0.932155784,42.2711405 C1.69605827,44.492223 3.7845578,45.9843918 6.13333333,45.9872222 L6.47194444,45.9872222 C8.04540976,45.889284 9.50146003,45.1217175 10.4713889,43.8788889 L17.8186111,34.4680556 C18.055,34.6213889 18.2977778,34.7683333 18.5469444,34.9088889 C21.307778,36.494175 24.435563,37.3289852 27.6191667,37.3302778 C29.2588885,37.3340897 30.8917973,37.1192333 32.4747222,36.6913889 C39.6292017,34.7364293 44.9023016,28.6652773 45.8363485,21.3075602 C46.7703955,13.9498432 43.181553,6.75368592 36.7425,3.07305556 L36.7488889,3.0475 Z M8.46527778,42.3008333 C7.76570841,43.2075613 6.60478807,43.6277884 5.48692271,43.3789309 C4.36905736,43.1300735 3.49603765,42.2570538 3.24718017,41.1391884 C2.99832268,40.021323 3.41854976,38.8604027 4.32527778,38.1608333 L10.2030556,33.5672222 L13.0588889,36.4166667 L8.46527778,42.3008333 Z M14.2152778,34.8961111 L11.6980556,32.3788889 L13.6466667,30.8583333 C14.2852306,31.6102412 14.9839255,32.308936 15.7358333,32.9475 L14.2152778,34.8961111 Z M41.3616667,26.8333333 C37.6268497,33.3737559 29.7919662,36.365058 22.6486377,33.9778331 C15.5053092,31.5906082 11.0431178,24.4897536 11.9910298,17.0179768 C12.9389418,9.54620006 19.0329417,3.78456377 26.5460895,3.25674257 C34.0592373,2.72892137 40.8989475,7.58192567 42.8822222,14.8477778 C43.9968644,18.8856713 43.4493086,23.2016997 41.3616667,26.8333333 L41.3616667,26.8333333 Z" id="Shape"></path>
                            <path d="M39.6941667,18.7386111 C39.4398883,18.722895 39.1898172,18.8090737 38.9992062,18.978106 C38.8085952,19.1471384 38.6931339,19.3851111 38.6783333,19.6394444 C38.3358688,25.2010323 33.9004508,29.634436 28.3387079,29.9743742 C22.776965,30.3143123 17.8346336,26.4540841 16.8173913,20.9756025 C15.800149,15.497121 19.0272908,10.1199882 24.3403434,8.44069852 C29.653396,6.76140885 35.3846827,9.30706275 37.7008333,14.375 C37.9213637,14.8566383 38.4905839,15.0683081 38.9722222,14.8477777 C39.4538605,14.6272473 39.6655303,14.0580272 39.445,13.5763889 C36.7896039,7.81939346 30.3598077,4.82767717 24.2456346,6.5042847 C18.1314616,8.18089223 14.1270212,14.0338491 14.7795567,20.340062 C15.4320922,26.646275 20.5501271,31.5552836 26.8780556,31.9444444 C27.1463889,31.9444444 27.4125926,31.9444444 27.6766667,31.9444444 C34.5261647,31.9328031 40.1833247,26.5919514 40.5886111,19.7544444 C40.6214163,19.2271805 40.221342,18.7728105 39.6941667,18.7386111 L39.6941667,18.7386111 Z" id="Path"></path>
                            <path d="M38.4483333,16.7452778 L38.4483333,16.8027778 C38.4482388,17.0546579 38.5500136,17.2958702 38.7305101,17.4715535 C38.9110067,17.6472368 39.154881,17.7424564 39.4066667,17.7355556 C39.9400479,17.7216969 40.36518,17.2852279 40.3650001,16.7516667 C40.3650001,16.2223938 39.9359396,15.7933333 39.4066667,15.7933333 C38.8773938,15.7933333 38.4483333,16.2223938 38.4483333,16.7516667 L38.4483333,16.7452778 Z" id="Path"></path>
                            <path d="M25.9516667,12.7330556 C26.4685899,12.5954446 26.7760832,12.0648399 26.6384722,11.5479167 C26.5008613,11.0309935 25.9702565,10.7235002 25.4533333,10.8611111 C20.986491,12.0868022 18.3543801,16.6965687 19.5691667,21.1663889 C19.7288023,21.6508872 20.2399955,21.9254174 20.7320619,21.7909079 C21.2241283,21.6563984 21.524583,21.1599991 21.4155556,20.6616667 C20.4901027,17.2210874 22.5166435,13.6789225 25.9516667,12.7330556 L25.9516667,12.7330556 Z" id="Path"></path>
                        </g>
                    </g>
                </g>
            </g>
        </g>
    </g>
</svg>