<?xml version="1.0" encoding="UTF-8"?>
<svg width="42px" height="46px" viewBox="0 0 42 46" version="1.1" xmlns="http://www.w3.org/2000/svg" xmlns:xlink="http://www.w3.org/1999/xlink">
    <!-- Generator: Sketch 57.1 (83088) - https://sketch.com -->
    <title>presentation</title>
    <desc>Created with Sketch.</desc>
    <g id="Webseite" stroke="none" stroke-width="1" fill="none" fill-rule="evenodd">
        <g id="Webseite_04" transform="translate(-532.000000, -1373.000000)" fill="#242E57" fill-rule="nonzero">
            <g id="presentation" transform="translate(532.000000, 1373.000000)">
                <path d="M40,6.165 L26.705,6.165 L22.445,1.915 C22.4851098,1.78361331 22.5069809,1.6473395 22.51,1.51 C22.51,0.681572875 21.8384271,0.01 21.01,0.01 L21.01,0.01 C20.1815729,0.01 19.51,0.681572875 19.51,1.51 C19.5122971,1.64375307 19.5324761,1.77659784 19.57,1.905 L15.295,6.18 L2,6.18 C0.8954305,6.18 0,7.0754305 0,8.18 L0,10.68 C0,11.7845695 0.8954305,12.68 2,12.68 L2.085,12.68 L2.085,36.015 C2.085,36.5672847 2.53271525,37.015 3.085,37.015 L20.25,37.015 L20.25,39.695 C18.78727,40.0726753 17.8335561,41.47909 18.0239109,42.9777504 C18.2142657,44.4764107 19.4892989,45.5997375 21,45.5997375 C22.5107011,45.5997375 23.7857343,44.4764107 23.9760891,42.9777504 C24.1664439,41.47909 23.21273,40.0726753 21.75,39.695 L21.75,37.015 L38.915,37.015 C39.4672847,37.015 39.915,36.5672847 39.915,36.015 L39.915,12.665 L40,12.665 C41.1045695,12.665 42,11.7695695 42,10.665 L42,8.165 C42,7.0604305 41.1045695,6.165 40,6.165 Z M22.5,42.58 C22.5,43.4084271 21.8284271,44.08 21,44.08 C20.1715729,44.08 19.5,43.4084271 19.5,42.58 C19.5,41.7515729 20.1715729,41.08 21,41.08 C21.3978247,41.08 21.7793556,41.2380353 22.0606602,41.5193398 C22.3419647,41.8006444 22.5,42.1821753 22.5,42.58 L22.5,42.58 Z M20.635,2.945 C20.8753564,3.01245883 21.1296436,3.01245883 21.37,2.945 L24.585,6.16 L17.415,6.16 L20.635,2.945 Z M37.915,35 L4.08,35 L4.08,12.665 L37.915,12.665 L37.915,35 Z M38.915,10.665 L2,10.665 L2,8.165 L40,8.165 L40,10.665 L38.915,10.665 Z" id="Shape"></path>
                <rect id="Rectangle" x="11" y="16.71" width="19.995" height="2"></rect>
                <rect id="Rectangle" x="18.395" y="23.875" width="15.855" height="1.5"></rect>
                <rect id="Rectangle" x="7.75" y="23.875" width="8.58" height="1.5"></rect>
                <rect id="Rectangle" x="27.75" y="29.21" width="6.5" height="1.5"></rect>
                <rect id="Rectangle" x="7.75" y="29.21" width="18.04" height="1.5"></rect>
            </g>
        </g>
    </g>
</svg>